<?xml version="1.0" encoding="UTF-8" standalone="no"?>
<!DOCTYPE svg PUBLIC "-//W3C//DTD SVG 1.1//EN"
 "http://www.w3.org/Graphics/SVG/1.1/DTD/svg11.dtd">
<!-- Generated by graphviz version 2.38.0 (20140413.2041)
 -->
<!-- Title: %3 Pages: 1 -->
<svg width="384pt" height="638pt"
 viewBox="0.00 0.00 384.00 637.99" xmlns="http://www.w3.org/2000/svg" xmlns:xlink="http://www.w3.org/1999/xlink">
<g id="graph0" class="graph" transform="scale(1 1) rotate(0) translate(4 633.991)">
<title>%3</title>
<polygon fill="white" stroke="none" points="-4,4 -4,-633.991 380,-633.991 380,4 -4,4"/>
<text text-anchor="middle" x="188" y="-7.8" font-family="Times,serif" font-size="14.00">The responsibility decision chart from &#39;cli&#39; module&#39;s point of view</text>
<!-- Start -->
<g id="node1" class="node"><title>Start</title>
<ellipse fill="none" stroke="black" cx="116.986" cy="-602.693" rx="27.0966" ry="27.0966"/>
<text text-anchor="middle" x="116.986" y="-598.993" font-family="Times,serif" font-size="14.00">Start</text>
</g>
<!-- Input -->
<g id="node3" class="node"><title>Input</title>
<polygon fill="none" stroke="black" points="159.751,-538.396 91.7219,-538.396 74.2216,-502.396 142.251,-502.396 159.751,-538.396"/>
<text text-anchor="middle" x="116.986" y="-516.696" font-family="Times,serif" font-size="14.00">Input</text>
</g>
<!-- Start&#45;&gt;Input -->
<g id="edge1" class="edge"><title>Start&#45;&gt;Input</title>
<path fill="none" stroke="black" d="M116.986,-574.955C116.986,-566.487 116.986,-557.119 116.986,-548.616"/>
<polygon fill="black" stroke="black" points="120.487,-548.443 116.986,-538.443 113.487,-548.443 120.487,-548.443"/>
</g>
<!-- End -->
<g id="node2" class="node"><title>End</title>
<ellipse fill="none" stroke="black" cx="111.986" cy="-47.6978" rx="24.8972" ry="24.8972"/>
<text text-anchor="middle" x="111.986" y="-43.9978" font-family="Times,serif" font-size="14.00">End</text>
</g>
<!-- IfValid -->
<g id="node4" class="node"><title>IfValid</title>
<polygon fill="none" stroke="black" points="116.986,-465.396 65.5408,-447.396 116.986,-429.396 168.432,-447.396 116.986,-465.396"/>
<text text-anchor="middle" x="116.986" y="-443.696" font-family="Times,serif" font-size="14.00">IfValid</text>
</g>
<!-- Input&#45;&gt;IfValid -->
<g id="edge2" class="edge"><title>Input&#45;&gt;IfValid</title>
<path fill="none" stroke="black" d="M116.986,-502.208C116.986,-494.185 116.986,-484.443 116.986,-475.465"/>
<polygon fill="black" stroke="black" points="120.487,-475.424 116.986,-465.424 113.487,-475.424 120.487,-475.424"/>
</g>
<!-- IfValid&#45;&gt;End -->
<g id="edge4" class="edge"><title>IfValid&#45;&gt;End</title>
<path fill="none" stroke="black" d="M109.038,-431.829C100.76,-415.27 88.9864,-387.187 88.9864,-361.396 88.9864,-361.396 88.9864,-361.396 88.9864,-126.396 88.9864,-110.661 93.3771,-93.843 98.3217,-79.8926"/>
<polygon fill="black" stroke="black" points="101.687,-80.889 101.965,-70.2978 95.1431,-78.404 101.687,-80.889"/>
<text text-anchor="middle" x="97.4864" y="-240.196" font-family="Times,serif" font-size="14.00">No</text>
</g>
<!-- LoadJsonConfig -->
<g id="node6" class="node"><title>LoadJsonConfig</title>
<path fill="none" stroke="black" d="M232.986,-378.396C232.986,-378.396 150.986,-378.396 150.986,-378.396 144.986,-378.396 138.986,-372.396 138.986,-366.396 138.986,-366.396 138.986,-354.396 138.986,-354.396 138.986,-348.396 144.986,-342.396 150.986,-342.396 150.986,-342.396 232.986,-342.396 232.986,-342.396 238.986,-342.396 244.986,-348.396 244.986,-354.396 244.986,-354.396 244.986,-366.396 244.986,-366.396 244.986,-372.396 238.986,-378.396 232.986,-378.396"/>
<text text-anchor="middle" x="191.986" y="-356.696" font-family="Times,serif" font-size="14.00">LoadJsonConfig</text>
</g>
<!-- IfValid&#45;&gt;LoadJsonConfig -->
<g id="edge3" class="edge"><title>IfValid&#45;&gt;LoadJsonConfig</title>
<path fill="none" stroke="black" d="M128.705,-433.114C139.721,-420.629 156.491,-401.624 169.999,-386.314"/>
<polygon fill="black" stroke="black" points="172.727,-388.513 176.719,-378.699 167.478,-383.882 172.727,-388.513"/>
<text text-anchor="middle" x="171.986" y="-400.196" font-family="Times,serif" font-size="14.00">Yes</text>
</g>
<!-- CallSkaff -->
<g id="node5" class="node"><title>CallSkaff</title>
<path fill="none" stroke="black" d="M179.986,-145.396C179.986,-145.396 135.986,-145.396 135.986,-145.396 129.986,-145.396 123.986,-139.396 123.986,-133.396 123.986,-133.396 123.986,-121.396 123.986,-121.396 123.986,-115.396 129.986,-109.396 135.986,-109.396 135.986,-109.396 179.986,-109.396 179.986,-109.396 185.986,-109.396 191.986,-115.396 191.986,-121.396 191.986,-121.396 191.986,-133.396 191.986,-133.396 191.986,-139.396 185.986,-145.396 179.986,-145.396"/>
<text text-anchor="middle" x="157.986" y="-123.696" font-family="Times,serif" font-size="14.00">CallSkaff</text>
</g>
<!-- CallSkaff&#45;&gt;End -->
<g id="edge8" class="edge"><title>CallSkaff&#45;&gt;End</title>
<path fill="none" stroke="black" d="M147.778,-109.152C142.414,-100.092 135.689,-88.7342 129.522,-78.3162"/>
<polygon fill="black" stroke="black" points="132.399,-76.3062 124.293,-69.4843 126.376,-79.8724 132.399,-76.3062"/>
</g>
<!-- OverwriteWithGivenArguments -->
<g id="node8" class="node"><title>OverwriteWithGivenArguments</title>
<path fill="none" stroke="black" d="M298.486,-305.396C298.486,-305.396 129.486,-305.396 129.486,-305.396 123.486,-305.396 117.486,-299.396 117.486,-293.396 117.486,-293.396 117.486,-281.396 117.486,-281.396 117.486,-275.396 123.486,-269.396 129.486,-269.396 129.486,-269.396 298.486,-269.396 298.486,-269.396 304.486,-269.396 310.486,-275.396 310.486,-281.396 310.486,-281.396 310.486,-293.396 310.486,-293.396 310.486,-299.396 304.486,-305.396 298.486,-305.396"/>
<text text-anchor="middle" x="213.986" y="-283.696" font-family="Times,serif" font-size="14.00">OverwriteWithGivenArguments</text>
</g>
<!-- LoadJsonConfig&#45;&gt;OverwriteWithGivenArguments -->
<g id="edge5" class="edge"><title>LoadJsonConfig&#45;&gt;OverwriteWithGivenArguments</title>
<path fill="none" stroke="black" d="M197.312,-342.208C199.825,-334.098 202.882,-324.231 205.689,-315.172"/>
<polygon fill="black" stroke="black" points="209.093,-316.012 208.71,-305.424 202.407,-313.94 209.093,-316.012"/>
</g>
<!-- SaveJsonConfig -->
<g id="node7" class="node"><title>SaveJsonConfig</title>
<path fill="none" stroke="black" d="M219.986,-218.396C219.986,-218.396 139.986,-218.396 139.986,-218.396 133.986,-218.396 127.986,-212.396 127.986,-206.396 127.986,-206.396 127.986,-194.396 127.986,-194.396 127.986,-188.396 133.986,-182.396 139.986,-182.396 139.986,-182.396 219.986,-182.396 219.986,-182.396 225.986,-182.396 231.986,-188.396 231.986,-194.396 231.986,-194.396 231.986,-206.396 231.986,-206.396 231.986,-212.396 225.986,-218.396 219.986,-218.396"/>
<text text-anchor="middle" x="179.986" y="-196.696" font-family="Times,serif" font-size="14.00">SaveJsonConfig</text>
</g>
<!-- SaveJsonConfig&#45;&gt;CallSkaff -->
<g id="edge7" class="edge"><title>SaveJsonConfig&#45;&gt;CallSkaff</title>
<path fill="none" stroke="black" d="M174.661,-182.208C172.148,-174.098 169.09,-164.231 166.283,-155.172"/>
<polygon fill="black" stroke="black" points="169.566,-153.94 163.263,-145.424 162.88,-156.012 169.566,-153.94"/>
</g>
<!-- OverwriteWithGivenArguments&#45;&gt;SaveJsonConfig -->
<g id="edge6" class="edge"><title>OverwriteWithGivenArguments&#45;&gt;SaveJsonConfig</title>
<path fill="none" stroke="black" d="M207.106,-269.195C202.405,-257.443 196.082,-241.634 190.723,-228.238"/>
<polygon fill="black" stroke="black" points="193.82,-226.556 186.857,-218.571 187.321,-229.156 193.82,-226.556"/>
</g>
</g>
</svg>
