<?xml version="1.0" encoding="UTF-8" standalone="no"?>
<!DOCTYPE svg PUBLIC "-//W3C//DTD SVG 1.1//EN"
 "http://www.w3.org/Graphics/SVG/1.1/DTD/svg11.dtd">
<!-- Generated by graphviz version 2.38.0 (20140413.2041)
 -->
<!-- Title: %3 Pages: 1 -->
<svg width="783pt" height="275pt"
 viewBox="0.00 0.00 782.54 274.98" xmlns="http://www.w3.org/2000/svg" xmlns:xlink="http://www.w3.org/1999/xlink">
<g id="graph0" class="graph" transform="scale(1 1) rotate(0) translate(4 270.983)">
<title>%3</title>
<polygon fill="white" stroke="none" points="-4,4 -4,-270.983 778.545,-270.983 778.545,4 -4,4"/>
<!-- root -->
<g id="node1" class="node"><title>root</title>
<ellipse fill="none" stroke="black" cx="409.597" cy="-240.335" rx="26.7961" ry="26.7961"/>
<text text-anchor="middle" x="409.597" y="-236.635" font-family="Times,serif" font-size="14.00">nihil</text>
</g>
<!-- build -->
<g id="node2" class="node"><title>build</title>
<ellipse fill="none" stroke="black" cx="28.5975" cy="-133.491" rx="28.6953" ry="28.6953"/>
<text text-anchor="middle" x="28.5975" y="-129.791" font-family="Times,serif" font-size="14.00">build</text>
</g>
<!-- root&#45;&#45;build -->
<g id="edge1" class="edge"><title>root&#45;&#45;build</title>
<path fill="none" stroke="black" d="M382.96,-236.831C312.199,-229.823 121.205,-208.489 66.5975,-177.687 57.8978,-172.78 50.1964,-165.116 44.0409,-157.597"/>
</g>
<!-- cmake -->
<g id="node3" class="node"><title>cmake</title>
<ellipse fill="none" stroke="black" cx="109.597" cy="-133.491" rx="34.394" ry="34.394"/>
<text text-anchor="middle" x="109.597" y="-129.791" font-family="Times,serif" font-size="14.00">cmake</text>
</g>
<!-- root&#45;&#45;cmake -->
<g id="edge2" class="edge"><title>root&#45;&#45;cmake</title>
<path fill="none" stroke="black" d="M382.703,-237.697C333.913,-233.72 228.817,-220.476 152.597,-177.687 144.847,-173.336 137.553,-167.19 131.25,-160.895"/>
</g>
<!-- contrib -->
<g id="node4" class="node"><title>contrib</title>
<ellipse fill="none" stroke="black" cx="197.597" cy="-133.491" rx="35.9954" ry="35.9954"/>
<text text-anchor="middle" x="197.597" y="-129.791" font-family="Times,serif" font-size="14.00">contrib</text>
</g>
<!-- root&#45;&#45;contrib -->
<g id="edge3" class="edge"><title>root&#45;&#45;contrib</title>
<path fill="none" stroke="black" d="M383.789,-233.344C349.647,-224.655 288.441,-206.384 242.597,-177.687 235.07,-172.976 227.748,-166.851 221.272,-160.701"/>
</g>
<!-- doc -->
<g id="node5" class="node"><title>doc</title>
<ellipse fill="none" stroke="black" cx="274.597" cy="-133.491" rx="23.2963" ry="23.2963"/>
<text text-anchor="middle" x="274.597" y="-129.791" font-family="Times,serif" font-size="14.00">doc</text>
</g>
<!-- root&#45;&#45;doc -->
<g id="edge4" class="edge"><title>root&#45;&#45;doc</title>
<path fill="none" stroke="black" d="M385.645,-228.118C363.83,-217.183 331.474,-199.1 307.597,-177.687 299.869,-170.757 292.689,-161.807 287.014,-153.852"/>
</g>
<!-- examples -->
<g id="node6" class="node"><title>examples</title>
<ellipse fill="none" stroke="black" cx="360.597" cy="-133.491" rx="44.393" ry="44.393"/>
<text text-anchor="middle" x="360.597" y="-129.791" font-family="Times,serif" font-size="14.00">examples</text>
</g>
<!-- root&#45;&#45;examples -->
<g id="edge5" class="edge"><title>root&#45;&#45;examples</title>
<path fill="none" stroke="black" d="M398.601,-215.806C392.845,-203.49 385.642,-188.079 379.06,-173.995"/>
</g>
<!-- include -->
<g id="node7" class="node"><title>include</title>
<ellipse fill="none" stroke="black" cx="459.597" cy="-133.491" rx="36.2938" ry="36.2938"/>
<text text-anchor="middle" x="459.597" y="-129.791" font-family="Times,serif" font-size="14.00">include</text>
</g>
<!-- root&#45;&#45;include -->
<g id="edge6" class="edge"><title>root&#45;&#45;include</title>
<path fill="none" stroke="black" d="M420.694,-216.067C427.599,-201.588 436.579,-182.759 444.171,-166.839"/>
</g>
<!-- misc -->
<g id="node8" class="node"><title>misc</title>
<ellipse fill="none" stroke="black" cx="541.597" cy="-133.491" rx="27.8951" ry="27.8951"/>
<text text-anchor="middle" x="541.597" y="-129.791" font-family="Times,serif" font-size="14.00">misc</text>
</g>
<!-- root&#45;&#45;misc -->
<g id="edge7" class="edge"><title>root&#45;&#45;misc</title>
<path fill="none" stroke="black" d="M432.761,-226.825C452.836,-215.415 482.111,-197.372 504.597,-177.687 511.879,-171.313 519.007,-163.489 525.033,-156.26"/>
</g>
<!-- src -->
<g id="node9" class="node"><title>src</title>
<ellipse fill="none" stroke="black" cx="608.597" cy="-133.491" rx="20.5982" ry="20.5982"/>
<text text-anchor="middle" x="608.597" y="-129.791" font-family="Times,serif" font-size="14.00">src</text>
</g>
<!-- root&#45;&#45;src -->
<g id="edge8" class="edge"><title>root&#45;&#45;src</title>
<path fill="none" stroke="black" d="M435.739,-234.929C471.15,-227.895 534.942,-211.344 578.597,-177.687 587.275,-170.998 594.409,-161.088 599.54,-152.448"/>
</g>
<!-- tests -->
<g id="node10" class="node"><title>tests</title>
<ellipse fill="none" stroke="black" cx="673.597" cy="-133.491" rx="26.7961" ry="26.7961"/>
<text text-anchor="middle" x="673.597" y="-129.791" font-family="Times,serif" font-size="14.00">tests</text>
</g>
<!-- root&#45;&#45;tests -->
<g id="edge9" class="edge"><title>root&#45;&#45;tests</title>
<path fill="none" stroke="black" d="M436.108,-237.493C481.114,-233.274 573.872,-219.761 638.597,-177.687 646.852,-172.322 654.085,-164.374 659.8,-156.754"/>
</g>
<!-- tools -->
<g id="node11" class="node"><title>tools</title>
<ellipse fill="none" stroke="black" cx="746.597" cy="-133.491" rx="27.8951" ry="27.8951"/>
<text text-anchor="middle" x="746.597" y="-129.791" font-family="Times,serif" font-size="14.00">tools</text>
</g>
<!-- root&#45;&#45;tools -->
<g id="edge10" class="edge"><title>root&#45;&#45;tools</title>
<path fill="none" stroke="black" d="M436.516,-239.484C491.658,-238.629 619.816,-230.605 709.597,-177.687 718.104,-172.674 725.611,-164.986 731.601,-157.478"/>
</g>
<!-- header -->
<g id="node13" class="node"><title>header</title>
<ellipse fill="none" stroke="black" cx="459.597" cy="-26.6476" rx="26.7961" ry="26.7961"/>
<text text-anchor="middle" x="459.597" y="-22.9476" font-family="Times,serif" font-size="14.00">nihil</text>
</g>
<!-- include&#45;&#45;header -->
<g id="edge11" class="edge"><title>include&#45;&#45;header</title>
<path fill="none" stroke="black" d="M459.597,-96.9961C459.597,-82.7386 459.597,-66.6098 459.597,-53.4968"/>
</g>
<!-- conf -->
<g id="node12" class="node"><title>conf</title>
<ellipse fill="none" stroke="black" cx="535.597" cy="-26.6476" rx="26.7961" ry="26.7961"/>
<text text-anchor="middle" x="535.597" y="-22.9476" font-family="Times,serif" font-size="14.00">conf</text>
</g>
<!-- misc&#45;&#45;conf -->
<g id="edge12" class="edge"><title>misc&#45;&#45;conf</title>
<path fill="none" stroke="black" d="M540.052,-105.491C539.136,-89.4739 537.98,-69.2782 537.075,-53.4716"/>
</g>
<!-- img -->
<g id="node14" class="node"><title>img</title>
<ellipse fill="none" stroke="black" cx="604.597" cy="-26.6476" rx="24.8972" ry="24.8972"/>
<text text-anchor="middle" x="604.597" y="-22.9476" font-family="Times,serif" font-size="14.00">img</text>
</g>
<!-- misc&#45;&#45;img -->
<g id="edge13" class="edge"><title>misc&#45;&#45;img</title>
<path fill="none" stroke="black" d="M555.579,-109.223C566.527,-91.0042 581.614,-65.8965 592.148,-48.3653"/>
</g>
</g>
</svg>
