<?xml version="1.0" encoding="UTF-8" standalone="no"?>
<!DOCTYPE svg PUBLIC "-//W3C//DTD SVG 1.1//EN"
 "http://www.w3.org/Graphics/SVG/1.1/DTD/svg11.dtd">
<!-- Generated by graphviz version 2.38.0 (20140413.2041)
 -->
<!-- Title: %3 Pages: 1 -->
<svg width="636pt" height="279pt"
 viewBox="0.00 0.00 636.25 278.88" xmlns="http://www.w3.org/2000/svg" xmlns:xlink="http://www.w3.org/1999/xlink">
<g id="graph0" class="graph" transform="scale(1 1) rotate(0) translate(4 274.882)">
<title>%3</title>
<polygon fill="white" stroke="none" points="-4,4 -4,-274.882 632.245,-274.882 632.245,4 -4,4"/>
<!-- root -->
<g id="node1" class="node"><title>root</title>
<ellipse fill="none" stroke="black" cx="338.597" cy="-244.235" rx="26.7961" ry="26.7961"/>
<text text-anchor="middle" x="338.597" y="-240.535" font-family="Times,serif" font-size="14.00">nihil</text>
</g>
<!-- build -->
<g id="node3" class="node"><title>build</title>
<ellipse fill="none" stroke="black" cx="28.5975" cy="-135.441" rx="28.6953" ry="28.6953"/>
<text text-anchor="middle" x="28.5975" y="-131.741" font-family="Times,serif" font-size="14.00">build</text>
</g>
<!-- root&#45;&#45;build -->
<g id="edge1" class="edge"><title>root&#45;&#45;build</title>
<path fill="none" stroke="black" d="M311.788,-242.703C260.479,-240.55 146.412,-230.194 66.5975,-181.587 57.6726,-176.152 49.8271,-167.881 43.6178,-159.897"/>
</g>
<!-- coccinelle -->
<g id="node4" class="node"><title>coccinelle</title>
<ellipse fill="none" stroke="black" cx="121.597" cy="-135.441" rx="46.2923" ry="46.2923"/>
<text text-anchor="middle" x="121.597" y="-131.741" font-family="Times,serif" font-size="14.00">coccinelle</text>
</g>
<!-- root&#45;&#45;coccinelle -->
<g id="edge2" class="edge"><title>root&#45;&#45;coccinelle</title>
<path fill="none" stroke="black" d="M312.953,-236.139C280.226,-226.484 222.479,-207.409 177.597,-181.587 170.129,-177.29 162.618,-172.03 155.63,-166.637"/>
</g>
<!-- doc -->
<g id="node5" class="node"><title>doc</title>
<ellipse fill="none" stroke="black" cx="209.597" cy="-135.441" rx="23.2963" ry="23.2963"/>
<text text-anchor="middle" x="209.597" y="-131.741" font-family="Times,serif" font-size="14.00">doc</text>
</g>
<!-- root&#45;&#45;doc -->
<g id="edge3" class="edge"><title>root&#45;&#45;doc</title>
<path fill="none" stroke="black" d="M315.197,-231.414C294.644,-220.323 264.663,-202.36 242.597,-181.587 234.539,-174.001 227.113,-164.218 221.355,-155.7"/>
</g>
<!-- examples -->
<g id="node6" class="node"><title>examples</title>
<ellipse fill="none" stroke="black" cx="295.597" cy="-135.441" rx="44.393" ry="44.393"/>
<text text-anchor="middle" x="295.597" y="-131.741" font-family="Times,serif" font-size="14.00">examples</text>
</g>
<!-- root&#45;&#45;examples -->
<g id="edge4" class="edge"><title>root&#45;&#45;examples</title>
<path fill="none" stroke="black" d="M328.947,-219.268C323.896,-206.723 317.576,-191.026 311.799,-176.68"/>
</g>
<!-- img -->
<g id="node7" class="node"><title>img</title>
<ellipse fill="none" stroke="black" cx="382.597" cy="-135.441" rx="24.8972" ry="24.8972"/>
<text text-anchor="middle" x="382.597" y="-131.741" font-family="Times,serif" font-size="14.00">img</text>
</g>
<!-- root&#45;&#45;img -->
<g id="edge5" class="edge"><title>root&#45;&#45;img</title>
<path fill="none" stroke="black" d="M348.472,-219.268C355.972,-201.065 366.206,-176.226 373.506,-158.508"/>
</g>
<!-- include -->
<g id="node8" class="node"><title>include</title>
<ellipse fill="none" stroke="black" cx="461.597" cy="-135.441" rx="36.2938" ry="36.2938"/>
<text text-anchor="middle" x="461.597" y="-131.741" font-family="Times,serif" font-size="14.00">include</text>
</g>
<!-- root&#45;&#45;include -->
<g id="edge6" class="edge"><title>root&#45;&#45;include</title>
<path fill="none" stroke="black" d="M359.668,-227.656C375.681,-215.562 398.042,-198.124 416.597,-181.587 423.372,-175.55 430.424,-168.748 436.88,-162.291"/>
</g>
<!-- src -->
<g id="node9" class="node"><title>src</title>
<ellipse fill="none" stroke="black" cx="536.597" cy="-135.441" rx="20.5982" ry="20.5982"/>
<text text-anchor="middle" x="536.597" y="-131.741" font-family="Times,serif" font-size="14.00">src</text>
</g>
<!-- root&#45;&#45;src -->
<g id="edge8" class="edge"><title>root&#45;&#45;src</title>
<path fill="none" stroke="black" d="M364.986,-238.859C400.361,-231.894 463.67,-215.457 506.597,-181.587 515.611,-174.476 522.847,-163.889 527.952,-154.755"/>
</g>
<!-- tests -->
<g id="node10" class="node"><title>tests</title>
<ellipse fill="none" stroke="black" cx="601.597" cy="-135.441" rx="26.7961" ry="26.7961"/>
<text text-anchor="middle" x="601.597" y="-131.741" font-family="Times,serif" font-size="14.00">tests</text>
</g>
<!-- root&#45;&#45;tests -->
<g id="edge9" class="edge"><title>root&#45;&#45;tests</title>
<path fill="none" stroke="black" d="M365.452,-241.479C410.541,-237.399 502.784,-224.101 566.597,-181.587 575.346,-175.759 582.85,-167.017 588.641,-158.773"/>
</g>
<!-- header -->
<g id="node2" class="node"><title>header</title>
<ellipse fill="none" stroke="black" cx="461.597" cy="-26.6476" rx="26.7961" ry="26.7961"/>
<text text-anchor="middle" x="461.597" y="-22.9476" font-family="Times,serif" font-size="14.00">nihil</text>
</g>
<!-- include&#45;&#45;header -->
<g id="edge7" class="edge"><title>include&#45;&#45;header</title>
<path fill="none" stroke="black" d="M461.597,-98.8805C461.597,-84.0754 461.597,-67.2036 461.597,-53.5973"/>
</g>
</g>
</svg>
