<?xml version="1.0" encoding="UTF-8" standalone="no"?>
<!DOCTYPE svg PUBLIC "-//W3C//DTD SVG 1.1//EN"
 "http://www.w3.org/Graphics/SVG/1.1/DTD/svg11.dtd">
<!-- Generated by graphviz version 2.38.0 (20140413.2041)
 -->
<!-- Title: %3 Pages: 1 -->
<svg width="783pt" height="304pt"
 viewBox="0.00 0.00 782.54 303.58" xmlns="http://www.w3.org/2000/svg" xmlns:xlink="http://www.w3.org/1999/xlink">
<g id="graph0" class="graph" transform="scale(1 1) rotate(0) translate(4 299.58)">
<title>%3</title>
<polygon fill="white" stroke="none" points="-4,4 -4,-299.58 778.545,-299.58 778.545,4 -4,4"/>
<!-- root -->
<g id="node1" class="node"><title>root</title>
<ellipse fill="none" stroke="black" cx="409.597" cy="-268.933" rx="26.7961" ry="26.7961"/>
<text text-anchor="middle" x="409.597" y="-265.233" font-family="Times,serif" font-size="14.00">nihil</text>
</g>
<!-- build -->
<g id="node2" class="node"><title>build</title>
<ellipse fill="none" stroke="black" cx="28.5975" cy="-162.089" rx="28.6953" ry="28.6953"/>
<text text-anchor="middle" x="28.5975" y="-158.389" font-family="Times,serif" font-size="14.00">build</text>
</g>
<!-- root&#45;&#45;build -->
<g id="edge1" class="edge"><title>root&#45;&#45;build</title>
<path fill="none" stroke="black" d="M382.96,-265.428C312.199,-258.42 121.205,-237.087 66.5975,-206.285 57.8978,-201.378 50.1964,-193.713 44.0409,-186.194"/>
</g>
<!-- cmake -->
<g id="node3" class="node"><title>cmake</title>
<ellipse fill="none" stroke="black" cx="109.597" cy="-162.089" rx="34.394" ry="34.394"/>
<text text-anchor="middle" x="109.597" y="-158.389" font-family="Times,serif" font-size="14.00">cmake</text>
</g>
<!-- root&#45;&#45;cmake -->
<g id="edge2" class="edge"><title>root&#45;&#45;cmake</title>
<path fill="none" stroke="black" d="M382.703,-266.294C333.913,-262.318 228.817,-249.074 152.597,-206.285 144.847,-201.934 137.553,-195.787 131.25,-189.492"/>
</g>
<!-- contrib -->
<g id="node4" class="node"><title>contrib</title>
<ellipse fill="none" stroke="black" cx="197.597" cy="-162.089" rx="35.9954" ry="35.9954"/>
<text text-anchor="middle" x="197.597" y="-158.389" font-family="Times,serif" font-size="14.00">contrib</text>
</g>
<!-- root&#45;&#45;contrib -->
<g id="edge3" class="edge"><title>root&#45;&#45;contrib</title>
<path fill="none" stroke="black" d="M383.789,-261.942C349.647,-253.252 288.441,-234.981 242.597,-206.285 235.07,-201.573 227.748,-195.448 221.272,-189.298"/>
</g>
<!-- doc -->
<g id="node5" class="node"><title>doc</title>
<ellipse fill="none" stroke="black" cx="274.597" cy="-162.089" rx="23.2963" ry="23.2963"/>
<text text-anchor="middle" x="274.597" y="-158.389" font-family="Times,serif" font-size="14.00">doc</text>
</g>
<!-- root&#45;&#45;doc -->
<g id="edge4" class="edge"><title>root&#45;&#45;doc</title>
<path fill="none" stroke="black" d="M385.645,-256.716C363.83,-245.78 331.474,-227.697 307.597,-206.285 299.869,-199.354 292.689,-190.404 287.014,-182.45"/>
</g>
<!-- examples -->
<g id="node6" class="node"><title>examples</title>
<ellipse fill="none" stroke="black" cx="360.597" cy="-162.089" rx="44.393" ry="44.393"/>
<text text-anchor="middle" x="360.597" y="-158.389" font-family="Times,serif" font-size="14.00">examples</text>
</g>
<!-- root&#45;&#45;examples -->
<g id="edge5" class="edge"><title>root&#45;&#45;examples</title>
<path fill="none" stroke="black" d="M398.601,-244.404C392.845,-232.087 385.642,-216.677 379.06,-202.593"/>
</g>
<!-- include -->
<g id="node7" class="node"><title>include</title>
<ellipse fill="none" stroke="black" cx="459.597" cy="-162.089" rx="36.2938" ry="36.2938"/>
<text text-anchor="middle" x="459.597" y="-158.389" font-family="Times,serif" font-size="14.00">include</text>
</g>
<!-- root&#45;&#45;include -->
<g id="edge6" class="edge"><title>root&#45;&#45;include</title>
<path fill="none" stroke="black" d="M420.694,-244.664C427.599,-230.186 436.579,-211.356 444.171,-195.437"/>
</g>
<!-- misc -->
<g id="node8" class="node"><title>misc</title>
<ellipse fill="none" stroke="black" cx="541.597" cy="-162.089" rx="27.8951" ry="27.8951"/>
<text text-anchor="middle" x="541.597" y="-158.389" font-family="Times,serif" font-size="14.00">misc</text>
</g>
<!-- root&#45;&#45;misc -->
<g id="edge7" class="edge"><title>root&#45;&#45;misc</title>
<path fill="none" stroke="black" d="M432.761,-255.423C452.836,-244.012 482.111,-225.97 504.597,-206.285 511.879,-199.911 519.007,-192.087 525.033,-184.857"/>
</g>
<!-- src -->
<g id="node9" class="node"><title>src</title>
<ellipse fill="none" stroke="black" cx="608.597" cy="-162.089" rx="20.5982" ry="20.5982"/>
<text text-anchor="middle" x="608.597" y="-158.389" font-family="Times,serif" font-size="14.00">src</text>
</g>
<!-- root&#45;&#45;src -->
<g id="edge8" class="edge"><title>root&#45;&#45;src</title>
<path fill="none" stroke="black" d="M435.739,-263.527C471.15,-256.493 534.942,-239.941 578.597,-206.285 587.275,-199.595 594.409,-189.686 599.54,-181.045"/>
</g>
<!-- tests -->
<g id="node10" class="node"><title>tests</title>
<ellipse fill="none" stroke="black" cx="673.597" cy="-162.089" rx="26.7961" ry="26.7961"/>
<text text-anchor="middle" x="673.597" y="-158.389" font-family="Times,serif" font-size="14.00">tests</text>
</g>
<!-- root&#45;&#45;tests -->
<g id="edge9" class="edge"><title>root&#45;&#45;tests</title>
<path fill="none" stroke="black" d="M436.108,-266.09C481.114,-261.871 573.872,-248.359 638.597,-206.285 646.852,-200.919 654.085,-192.972 659.8,-185.352"/>
</g>
<!-- tools -->
<g id="node11" class="node"><title>tools</title>
<ellipse fill="none" stroke="black" cx="746.597" cy="-162.089" rx="27.8951" ry="27.8951"/>
<text text-anchor="middle" x="746.597" y="-158.389" font-family="Times,serif" font-size="14.00">tools</text>
</g>
<!-- root&#45;&#45;tools -->
<g id="edge10" class="edge"><title>root&#45;&#45;tools</title>
<path fill="none" stroke="black" d="M436.516,-268.081C491.658,-267.227 619.816,-259.202 709.597,-206.285 718.104,-201.271 725.611,-193.583 731.601,-186.075"/>
</g>
<!-- caches -->
<g id="node12" class="node"><title>caches</title>
<ellipse fill="none" stroke="black" cx="63.5975" cy="-40.9464" rx="34.394" ry="34.394"/>
<text text-anchor="middle" x="63.5975" y="-37.2464" font-family="Times,serif" font-size="14.00">caches</text>
</g>
<!-- cmake&#45;&#45;caches -->
<g id="edge11" class="edge"><title>cmake&#45;&#45;caches</title>
<path fill="none" stroke="black" d="M97.5115,-129.786C90.8035,-112.411 82.483,-90.861 75.7624,-73.4542"/>
</g>
<!-- modules -->
<g id="node16" class="node"><title>modules</title>
<ellipse fill="none" stroke="black" cx="156.597" cy="-40.9464" rx="40.8928" ry="40.8928"/>
<text text-anchor="middle" x="156.597" y="-37.2464" font-family="Times,serif" font-size="14.00">modules</text>
</g>
<!-- cmake&#45;&#45;modules -->
<g id="edge12" class="edge"><title>cmake&#45;&#45;modules</title>
<path fill="none" stroke="black" d="M121.946,-129.786C128.038,-114.342 135.432,-95.5984 141.823,-79.3985"/>
</g>
<!-- header -->
<g id="node14" class="node"><title>header</title>
<ellipse fill="none" stroke="black" cx="459.597" cy="-40.9464" rx="26.7961" ry="26.7961"/>
<text text-anchor="middle" x="459.597" y="-37.2464" font-family="Times,serif" font-size="14.00">nihil</text>
</g>
<!-- include&#45;&#45;header -->
<g id="edge13" class="edge"><title>include&#45;&#45;header</title>
<path fill="none" stroke="black" d="M459.597,-125.665C459.597,-107.144 459.597,-84.8759 459.597,-67.9627"/>
</g>
<!-- conf -->
<g id="node13" class="node"><title>conf</title>
<ellipse fill="none" stroke="black" cx="535.597" cy="-40.9464" rx="26.7961" ry="26.7961"/>
<text text-anchor="middle" x="535.597" y="-37.2464" font-family="Times,serif" font-size="14.00">conf</text>
</g>
<!-- misc&#45;&#45;conf -->
<g id="edge14" class="edge"><title>misc&#45;&#45;conf</title>
<path fill="none" stroke="black" d="M540.236,-134.054C539.233,-114.143 537.878,-87.2381 536.892,-67.6495"/>
</g>
<!-- img -->
<g id="node15" class="node"><title>img</title>
<ellipse fill="none" stroke="black" cx="604.597" cy="-40.9464" rx="24.8972" ry="24.8972"/>
<text text-anchor="middle" x="604.597" y="-37.2464" font-family="Times,serif" font-size="14.00">img</text>
</g>
<!-- misc&#45;&#45;img -->
<g id="edge15" class="edge"><title>misc&#45;&#45;img</title>
<path fill="none" stroke="black" d="M554.346,-136.979C565.78,-115.356 582.396,-83.9333 593.346,-63.2252"/>
</g>
</g>
</svg>
